<?xml version="1.0" encoding="UTF-8" standalone="no"?>
<!DOCTYPE svg PUBLIC "-//W3C//DTD SVG 1.1//EN" "http://www.w3.org/Graphics/SVG/1.1/DTD/svg11.dtd">
<svg width="100%" height="100%" viewBox="0 0 400 145" version="1.1" xmlns="http://www.w3.org/2000/svg" xmlns:xlink="http://www.w3.org/1999/xlink" xml:space="preserve" xmlns:serif="http://www.serif.com/" style="fill-rule:evenodd;clip-rule:evenodd;stroke-linejoin:round;stroke-miterlimit:2;">
    <g transform="matrix(1,0,0,1,-1827.72,-618.526)">
        <g transform="matrix(2.12016,0,0,3.83242,-349.827,4185)">
            <g transform="matrix(0.471662,0,0,0.260932,381.685,-1153.15)">
                <g transform="matrix(160,0,0,160,1362.23,966.955)">
                    <path d="M0.306,0.01C0.251,0.01 0.203,-0 0.163,-0.021C0.123,-0.042 0.092,-0.071 0.07,-0.109C0.049,-0.147 0.038,-0.192 0.038,-0.244C0.038,-0.295 0.049,-0.339 0.07,-0.377C0.091,-0.415 0.119,-0.445 0.157,-0.467C0.194,-0.488 0.236,-0.499 0.283,-0.499C0.352,-0.499 0.407,-0.477 0.448,-0.433C0.488,-0.389 0.508,-0.329 0.508,-0.253C0.508,-0.228 0.492,-0.216 0.46,-0.216L0.158,-0.216C0.167,-0.129 0.217,-0.085 0.308,-0.085C0.325,-0.085 0.345,-0.087 0.367,-0.092C0.388,-0.096 0.409,-0.103 0.428,-0.114C0.445,-0.124 0.46,-0.127 0.472,-0.124C0.484,-0.12 0.493,-0.113 0.498,-0.102C0.502,-0.091 0.503,-0.08 0.5,-0.067C0.496,-0.054 0.486,-0.042 0.471,-0.033C0.448,-0.018 0.421,-0.008 0.391,-0.001C0.36,0.006 0.332,0.01 0.306,0.01ZM0.288,-0.414C0.251,-0.414 0.222,-0.403 0.199,-0.38C0.176,-0.357 0.163,-0.327 0.158,-0.288L0.404,-0.288C0.401,-0.329 0.39,-0.36 0.371,-0.382C0.351,-0.403 0.323,-0.414 0.288,-0.414Z" style="fill:rgb(242,242,242);fill-rule:nonzero;"/>
                </g>
                <g transform="matrix(160,0,0,160,1448.95,966.955)">
                    <path d="M0.253,0.01C0.21,0.01 0.173,-0 0.141,-0.021C0.108,-0.042 0.083,-0.071 0.065,-0.11C0.047,-0.148 0.038,-0.193 0.038,-0.245C0.038,-0.298 0.047,-0.343 0.065,-0.381C0.083,-0.418 0.108,-0.447 0.141,-0.468C0.173,-0.489 0.21,-0.499 0.253,-0.499C0.288,-0.499 0.319,-0.491 0.347,-0.476C0.375,-0.461 0.396,-0.44 0.41,-0.415L0.41,-0.65C0.41,-0.692 0.431,-0.713 0.472,-0.713C0.514,-0.713 0.535,-0.692 0.535,-0.65L0.535,-0.056C0.535,-0.013 0.514,0.008 0.473,0.008C0.432,0.008 0.411,-0.013 0.411,-0.056L0.411,-0.077C0.397,-0.05 0.376,-0.029 0.348,-0.014C0.32,0.002 0.288,0.01 0.253,0.01ZM0.288,-0.085C0.325,-0.085 0.355,-0.099 0.378,-0.126C0.401,-0.153 0.412,-0.192 0.412,-0.245C0.412,-0.298 0.401,-0.338 0.378,-0.365C0.355,-0.391 0.325,-0.404 0.288,-0.404C0.251,-0.404 0.221,-0.391 0.198,-0.365C0.175,-0.338 0.164,-0.298 0.164,-0.245C0.164,-0.192 0.175,-0.153 0.198,-0.126C0.221,-0.099 0.251,-0.085 0.288,-0.085Z" style="fill:rgb(242,242,242);fill-rule:nonzero;"/>
                </g>
                <g transform="matrix(160,0,0,160,1544.95,966.955)">
                    <path d="M0.129,0.008C0.086,0.008 0.065,-0.013 0.065,-0.056L0.065,-0.434C0.065,-0.476 0.085,-0.497 0.126,-0.497C0.167,-0.497 0.187,-0.476 0.187,-0.434L0.187,-0.403C0.211,-0.46 0.262,-0.492 0.341,-0.499C0.37,-0.502 0.386,-0.486 0.389,-0.45C0.392,-0.415 0.375,-0.395 0.337,-0.391L0.315,-0.389C0.233,-0.381 0.192,-0.339 0.192,-0.263L0.192,-0.056C0.192,-0.013 0.171,0.008 0.129,0.008Z" style="fill:rgb(242,242,242);fill-rule:nonzero;"/>
                </g>
                <g transform="matrix(160,0,0,160,1612.47,966.955)">
                    <path d="M0.189,0.188C0.166,0.188 0.151,0.18 0.142,0.163C0.133,0.146 0.134,0.127 0.143,0.106L0.2,-0.02L0.029,-0.414C0.02,-0.436 0.02,-0.455 0.029,-0.472C0.038,-0.489 0.057,-0.497 0.084,-0.497C0.099,-0.497 0.112,-0.494 0.121,-0.487C0.13,-0.48 0.139,-0.466 0.146,-0.447L0.266,-0.147L0.389,-0.448C0.396,-0.467 0.405,-0.48 0.415,-0.487C0.425,-0.494 0.438,-0.497 0.455,-0.497C0.476,-0.497 0.491,-0.489 0.5,-0.472C0.509,-0.455 0.508,-0.436 0.499,-0.415L0.256,0.14C0.247,0.159 0.238,0.171 0.228,0.178C0.218,0.185 0.205,0.188 0.189,0.188Z" style="fill:rgb(242,242,242);fill-rule:nonzero;"/>
                </g>
                <g transform="matrix(160,0,0,160,1695.03,966.955)">
                    <path d="M0.244,0.01C0.215,0.01 0.185,0.007 0.153,0.001C0.121,-0.005 0.092,-0.015 0.067,-0.03C0.053,-0.038 0.044,-0.048 0.041,-0.059C0.038,-0.071 0.038,-0.082 0.043,-0.093C0.047,-0.103 0.054,-0.11 0.065,-0.115C0.075,-0.12 0.087,-0.119 0.101,-0.112C0.128,-0.099 0.153,-0.091 0.176,-0.086C0.199,-0.081 0.222,-0.078 0.245,-0.078C0.277,-0.078 0.301,-0.084 0.317,-0.095C0.332,-0.106 0.34,-0.12 0.34,-0.138C0.34,-0.166 0.319,-0.184 0.278,-0.192L0.178,-0.211C0.093,-0.227 0.051,-0.271 0.051,-0.343C0.051,-0.375 0.06,-0.403 0.078,-0.426C0.095,-0.449 0.12,-0.467 0.151,-0.48C0.182,-0.493 0.218,-0.499 0.259,-0.499C0.318,-0.499 0.37,-0.486 0.416,-0.46C0.429,-0.453 0.436,-0.444 0.439,-0.433C0.441,-0.421 0.44,-0.41 0.435,-0.4C0.43,-0.389 0.422,-0.382 0.411,-0.378C0.4,-0.373 0.388,-0.374 0.374,-0.381C0.353,-0.392 0.334,-0.399 0.315,-0.404C0.296,-0.409 0.277,-0.411 0.26,-0.411C0.227,-0.411 0.203,-0.405 0.188,-0.394C0.172,-0.383 0.164,-0.368 0.164,-0.349C0.164,-0.32 0.183,-0.302 0.221,-0.295L0.321,-0.276C0.364,-0.268 0.397,-0.253 0.42,-0.232C0.442,-0.211 0.453,-0.182 0.453,-0.146C0.453,-0.097 0.434,-0.059 0.396,-0.032C0.358,-0.004 0.307,0.01 0.244,0.01Z" style="fill:rgb(242,242,242);fill-rule:nonzero;"/>
                </g>
            </g>
        </g>
    </g>
</svg>
